<svg width="188" height="40" viewBox="0 0 188 40" fill="none" xmlns="http://www.w3.org/2000/svg">
<path d="M40 20.0019C40 31.0476 31.0438 40 19.9981 40C14.6038 40 9.70922 37.8616 6.11234 34.3902C8.13047 33.9624 10.1208 33.5745 11.8647 33.239C17.3309 32.1869 25.6336 30.2101 27.4604 28.4279C27.4604 28.4279 28.3971 26.3412 28.938 25.0071C29.2508 24.5817 29.3624 24.2634 29.3729 24.232C29.9389 21.9991 25.0012 19.2652 21.7559 18.0663C19.4543 17.2161 18.4738 16.7006 17.2326 16.048C16.748 15.7933 16.2462 15.5296 15.6134 15.2173C17.1997 14.7954 18.7534 14.4626 19.8969 14.2045C22.815 13.5462 34.201 11.4795 37.8101 10.8972C39.2089 13.6281 40 16.7227 40 20.0019ZM8.72 18.5547C8.72719 18.532 8.79719 18.3328 9.0843 18.035C10.0135 15.7528 12.1309 11.0622 12.1309 11.0622C13.8686 8.21055 21.5616 6.17047 26.9279 4.68734C28.1795 4.34141 29.6746 3.9168 31.2477 3.46117C28.0427 1.27688 24.1693 0 19.9981 0C8.95242 0 0 8.95609 0 20.0019C0 25.2184 1.99766 29.9674 5.26859 33.5277C7.69273 32.793 10.1409 32.1097 12.1346 31.589C16.4655 30.458 23.1063 28.7407 26.7518 26.597C25.6214 25.8259 22.7945 24.7907 18.3001 23.3687C12.9387 21.6755 8.35914 20.2386 8.72 18.5547V18.5547Z" fill="url(#paint0_linear)"/>
<path d="M63.6053 22.5635C63.6053 22.6279 63.5838 22.7461 63.5408 22.918C63.1469 24.3574 62.309 25.4424 61.0271 26.1729C59.7524 26.8962 58.4096 27.2578 56.9988 27.2578C54.7358 27.2578 52.9705 26.5632 51.7029 25.1738C50.4425 23.7773 49.8123 21.9727 49.8123 19.7598C49.8123 17.5111 50.4604 15.6849 51.7566 14.2812C53.06 12.8704 54.8575 12.165 57.1492 12.165C58.5529 12.165 59.8992 12.541 61.1883 13.293C62.4845 14.0378 63.2651 15.137 63.5301 16.5908C63.5587 16.7054 63.573 16.7949 63.573 16.8594C63.573 17.2604 63.2221 17.4609 62.5203 17.4609C61.8256 17.4609 61.4533 17.2747 61.4031 16.9023C61.088 14.5462 59.67 13.3682 57.1492 13.3682C55.4018 13.3682 54.102 14.0413 53.2498 15.3877C52.4047 16.7269 51.9822 18.1771 51.9822 19.7383C51.9822 21.2708 52.3868 22.7103 53.1961 24.0566C54.0053 25.3958 55.2801 26.0654 57.0203 26.0654C59.5483 26.0654 61.0164 24.8802 61.4246 22.5098C61.4819 22.1517 61.8471 21.9727 62.5203 21.9727C63.2436 21.9727 63.6053 22.1696 63.6053 22.5635ZM74.3926 27.2578C73.6693 27.2578 73.3076 27.0609 73.3076 26.667V20.0928L67.7861 12.96C67.7288 12.8955 67.7002 12.8203 67.7002 12.7344C67.7002 12.3548 68.1156 12.165 68.9463 12.165C69.4547 12.165 69.8057 12.2868 69.999 12.5303L74.6826 18.5996L79.3447 12.4443C79.488 12.2581 79.7672 12.165 80.1826 12.165C80.7842 12.165 81.085 12.3118 81.085 12.6055C81.085 12.6699 81.0635 12.7272 81.0205 12.7773L75.4883 20.0928V26.667C75.4883 27.0609 75.123 27.2578 74.3926 27.2578ZM93.4514 27H86.8234C86.093 27 85.7277 26.7995 85.7277 26.3984V13.0244C85.7277 12.6234 86.093 12.4229 86.8234 12.4229H92.8391C93.9849 12.4229 94.9911 12.7881 95.8576 13.5186C96.7313 14.2419 97.1682 15.1908 97.1682 16.3652C97.1682 17.6901 96.6024 18.7464 95.4709 19.5342C97.0679 20.2503 97.8664 21.4248 97.8664 23.0576C97.8664 24.2464 97.4188 25.2025 96.5236 25.9258C95.6284 26.6419 94.6044 27 93.4514 27ZM92.8391 19.1152C93.4908 19.1152 94.01 18.8001 94.3967 18.1699C94.7906 17.5326 94.9875 16.931 94.9875 16.3652C94.9875 15.7995 94.7906 15.2015 94.3967 14.5713C94.01 13.9411 93.4908 13.626 92.8391 13.626H87.9084V19.1152H92.8391ZM93.4514 25.7969C94.1174 25.7969 94.6545 25.4889 95.0627 24.873C95.4781 24.25 95.6857 23.6449 95.6857 23.0576C95.6857 22.4632 95.4781 21.8581 95.0627 21.2422C94.6545 20.6191 94.1174 20.3076 93.4514 20.3076H87.9084V25.7969H93.4514ZM113.874 27H104.228C103.447 27 103.057 26.7852 103.057 26.3555V13.0674C103.057 12.6377 103.447 12.4229 104.228 12.4229H113.874C114.605 12.4229 114.97 12.6234 114.97 13.0244C114.97 13.4255 114.605 13.626 113.874 13.626H105.238V19.1045H112.51C113.233 19.1045 113.595 19.305 113.595 19.7061C113.595 20.1071 113.233 20.3076 112.51 20.3076H105.238V25.7969H113.874C114.605 25.7969 114.97 25.9974 114.97 26.3984C114.97 26.7995 114.605 27 113.874 27ZM132.31 27.2578C132.031 27.2578 131.787 27.2041 131.58 27.0967C130.763 26.6885 130.147 26.1406 129.732 25.4531C129.317 24.7656 128.944 24.0602 128.615 23.3369C128.371 22.7926 128.049 22.1696 127.648 21.4678C127.254 20.7588 126.696 20.4043 125.972 20.4043H122.331V26.6562C122.331 27.0573 121.965 27.2578 121.235 27.2578C120.512 27.2578 120.15 27.0573 120.15 26.6562V13.0244C120.15 12.6234 120.512 12.4229 121.235 12.4229H127.884C129.052 12.4229 130.133 12.7773 131.129 13.4863C132.124 14.1953 132.622 15.1693 132.622 16.4082C132.622 18.5208 131.419 19.8135 129.012 20.2861C129.413 20.6585 129.743 21.0918 130.001 21.5859C130.266 22.0729 130.509 22.5599 130.731 23.0469C130.982 23.6126 131.282 24.207 131.633 24.8301C131.984 25.4531 132.453 25.9115 133.041 26.2051C133.277 26.3268 133.395 26.4772 133.395 26.6562C133.395 26.8066 133.302 26.9391 133.116 27.0537C132.908 27.1898 132.64 27.2578 132.31 27.2578ZM127.884 19.2012C128.608 19.2012 129.213 18.904 129.7 18.3096C130.194 17.7152 130.441 17.0814 130.441 16.4082C130.441 15.7279 130.194 15.0941 129.7 14.5068C129.213 13.9196 128.608 13.626 127.884 13.626H122.331V19.2012H127.884ZM146.041 27H139.413C138.682 27 138.317 26.7995 138.317 26.3984V13.0244C138.317 12.6234 138.682 12.4229 139.413 12.4229H145.429C146.574 12.4229 147.581 12.7881 148.447 13.5186C149.321 14.2419 149.758 15.1908 149.758 16.3652C149.758 17.6901 149.192 18.7464 148.06 19.5342C149.657 20.2503 150.456 21.4248 150.456 23.0576C150.456 24.2464 150.008 25.2025 149.113 25.9258C148.218 26.6419 147.194 27 146.041 27ZM145.429 19.1152C146.08 19.1152 146.599 18.8001 146.986 18.1699C147.38 17.5326 147.577 16.931 147.577 16.3652C147.577 15.7995 147.38 15.2015 146.986 14.5713C146.599 13.9411 146.08 13.626 145.429 13.626H140.498V19.1152H145.429ZM146.041 25.7969C146.707 25.7969 147.244 25.4889 147.652 24.873C148.068 24.25 148.275 23.6449 148.275 23.0576C148.275 22.4632 148.068 21.8581 147.652 21.2422C147.244 20.6191 146.707 20.3076 146.041 20.3076H140.498V25.7969H146.041ZM162.554 27.2578C160.305 27.2578 158.5 26.5452 157.14 25.1201C155.786 23.6878 155.109 21.8831 155.109 19.7061C155.109 17.5218 155.786 15.7207 157.14 14.3027C158.5 12.8776 160.305 12.165 162.554 12.165C164.802 12.165 166.604 12.8776 167.957 14.3027C169.318 15.7207 169.998 17.5218 169.998 19.7061C169.998 21.8831 169.318 23.6878 167.957 25.1201C166.604 26.5452 164.802 27.2578 162.554 27.2578ZM162.554 26.0547C164.294 26.0547 165.604 25.3815 166.485 24.0352C167.373 22.6888 167.817 21.2458 167.817 19.7061C167.817 18.1663 167.373 16.7269 166.485 15.3877C165.604 14.0413 164.294 13.3682 162.554 13.3682C160.813 13.3682 159.499 14.0413 158.611 15.3877C157.73 16.7269 157.29 18.1663 157.29 19.7061C157.29 21.2458 157.73 22.6888 158.611 24.0352C159.499 25.3815 160.813 26.0547 162.554 26.0547ZM175.006 27.2578C174.891 27.2578 174.784 27.2471 174.684 27.2256C174.297 27.1468 174.104 27.0072 174.104 26.8066C174.104 26.7422 174.129 26.6813 174.179 26.624L179.657 19.8887L174.233 12.9814C174.175 12.9027 174.147 12.8275 174.147 12.7559C174.147 12.4694 174.401 12.2868 174.909 12.208C175.038 12.1865 175.182 12.1758 175.339 12.1758C175.876 12.1758 176.241 12.2975 176.435 12.541L180.946 18.2988L185.716 12.4443C185.866 12.2581 186.142 12.165 186.543 12.165C186.672 12.165 186.783 12.1758 186.876 12.1973C187.256 12.276 187.446 12.4157 187.446 12.6162C187.446 12.6807 187.42 12.7415 187.37 12.7988L181.903 19.5127L187.349 26.4521C187.406 26.5166 187.435 26.5918 187.435 26.6777C187.435 26.9427 187.181 27.1253 186.672 27.2256C186.557 27.2471 186.421 27.2578 186.264 27.2578C185.705 27.2578 185.333 27.1361 185.147 26.8926L180.613 21.1025L175.833 26.9785C175.676 27.1647 175.4 27.2578 175.006 27.2578Z" fill="url(#paint1_linear)"/>
<defs>
<linearGradient id="paint0_linear" x1="-14.4262" y1="8.5138e-07" x2="47.2131" y2="40" gradientUnits="userSpaceOnUse">
<stop offset="0.497311" stop-color="#FF6B00"/>
<stop offset="0.926698" stop-color="#FCBF54"/>
</linearGradient>
<linearGradient id="paint1_linear" x1="63.8371" y1="11" x2="171.324" y2="30.2178" gradientUnits="userSpaceOnUse">
<stop stop-color="#FF6B00"/>
<stop offset="0.731891" stop-color="#FF6B00"/>
<stop offset="1" stop-color="#FCBF54"/>
</linearGradient>
</defs>
</svg>
