<svg width="617" height="188" viewBox="0 0 617 188" fill="none" xmlns="http://www.w3.org/2000/svg">
<g filter="url(#filter0_d)">
<path d="M154 93.0056C154 126.143 127.131 153 93.9944 153C77.8112 153 63.1277 146.585 52.337 136.17C58.3914 134.887 64.3623 133.724 69.5941 132.717C85.9928 129.561 110.901 123.63 116.381 118.284C116.381 118.284 119.191 112.024 120.814 108.021C121.752 106.745 122.087 105.79 122.119 105.696C123.817 98.9974 109.004 90.7955 99.2676 87.199C92.3629 84.6483 89.4215 83.1019 85.6977 81.1439C84.2441 80.3798 82.7388 79.5888 80.8401 78.6518C85.5991 77.3862 90.2603 76.3877 93.6906 75.6136C102.445 73.6387 136.603 67.4386 147.43 65.6916C151.627 73.8844 154 83.168 154 93.0056ZM60.16 88.6641C60.1816 88.5961 60.3916 87.9984 61.2529 87.105C64.0405 80.2584 70.3926 66.1866 70.3926 66.1866C75.6058 57.6316 98.6847 51.5114 114.784 47.062C118.539 46.0242 123.024 44.7504 127.743 43.3835C118.128 36.8306 106.508 33 93.9944 33C60.8573 33 34 59.8683 34 93.0056C34 108.655 39.993 122.902 49.8058 133.583C57.0782 131.379 64.4228 129.329 70.4038 127.767C83.3966 124.374 103.319 119.222 114.255 112.791C110.864 110.478 102.383 107.372 88.9002 103.106C72.816 98.0264 59.0774 93.7158 60.16 88.6641Z" fill="url(#paint0_linear)"/>
<path d="M216.811 102.892C216.811 103.083 216.748 103.432 216.621 103.939C215.457 108.192 212.981 111.398 209.194 113.556C205.428 115.693 201.46 116.762 197.292 116.762C190.606 116.762 185.39 114.709 181.645 110.604C177.921 106.479 176.059 101.146 176.059 94.6084C176.059 87.9645 177.974 82.569 181.804 78.4219C185.655 74.2536 190.965 72.1694 197.736 72.1694C201.883 72.1694 205.861 73.2803 209.67 75.502C213.5 77.7025 215.806 80.9504 216.589 85.2456C216.674 85.5841 216.716 85.8486 216.716 86.0391C216.716 87.224 215.679 87.8164 213.605 87.8164C211.553 87.8164 210.453 87.2663 210.305 86.166C209.374 79.2048 205.184 75.7241 197.736 75.7241C192.574 75.7241 188.733 77.7131 186.215 81.6909C183.719 85.6476 182.47 89.9323 182.47 94.5449C182.47 99.0729 183.666 103.326 186.057 107.304C188.448 111.26 192.214 113.239 197.355 113.239C204.825 113.239 209.162 109.737 210.368 102.733C210.537 101.675 211.617 101.146 213.605 101.146C215.743 101.146 216.811 101.728 216.811 102.892ZM248.683 116.762C246.546 116.762 245.477 116.18 245.477 115.016V95.5923L229.164 74.5181C228.994 74.3276 228.91 74.1055 228.91 73.8516C228.91 72.7301 230.137 72.1694 232.591 72.1694C234.094 72.1694 235.13 72.5291 235.702 73.2485L249.54 91.1807L263.314 72.9946C263.737 72.4445 264.562 72.1694 265.79 72.1694C267.567 72.1694 268.456 72.6032 268.456 73.4707C268.456 73.6611 268.392 73.8304 268.265 73.9785L251.92 95.5923V115.016C251.92 116.18 250.841 116.762 248.683 116.762ZM304.993 116H285.41C283.252 116 282.173 115.408 282.173 114.223V74.7085C282.173 73.5236 283.252 72.9312 285.41 72.9312H303.184C306.569 72.9312 309.542 74.0103 312.102 76.1685C314.683 78.3055 315.974 81.109 315.974 84.5791C315.974 88.4935 314.303 91.6144 310.959 93.9419C315.678 96.0578 318.037 99.5278 318.037 104.352C318.037 107.864 316.715 110.689 314.07 112.826C311.425 114.942 308.399 116 304.993 116ZM303.184 92.7041C305.109 92.7041 306.643 91.7731 307.786 89.9111C308.949 88.028 309.531 86.2507 309.531 84.5791C309.531 82.9076 308.949 81.1408 307.786 79.2788C306.643 77.4168 305.109 76.4858 303.184 76.4858H288.616V92.7041H303.184ZM304.993 112.445C306.96 112.445 308.547 111.535 309.753 109.716C310.981 107.875 311.594 106.087 311.594 104.352C311.594 102.596 310.981 100.808 309.753 98.9883C308.547 97.1475 306.96 96.2271 304.993 96.2271H288.616V112.445H304.993ZM365.333 116H336.833C334.526 116 333.373 115.365 333.373 114.096V74.8354C333.373 73.5659 334.526 72.9312 336.833 72.9312H365.333C367.492 72.9312 368.571 73.5236 368.571 74.7085C368.571 75.8934 367.492 76.4858 365.333 76.4858H339.816V92.6724H361.303C363.44 92.6724 364.508 93.2648 364.508 94.4497C364.508 95.6346 363.44 96.2271 361.303 96.2271H339.816V112.445H365.333C367.492 112.445 368.571 113.038 368.571 114.223C368.571 115.408 367.492 116 365.333 116ZM419.803 116.762C418.978 116.762 418.258 116.603 417.645 116.286C415.232 115.08 413.413 113.461 412.186 111.43C410.958 109.398 409.858 107.314 408.885 105.177C408.165 103.569 407.213 101.728 406.028 99.6548C404.865 97.5601 403.214 96.5127 401.077 96.5127H390.318V114.984C390.318 116.169 389.239 116.762 387.081 116.762C384.944 116.762 383.875 116.169 383.875 114.984V74.7085C383.875 73.5236 384.944 72.9312 387.081 72.9312H406.727C410.175 72.9312 413.37 73.9785 416.312 76.0732C419.253 78.168 420.723 81.0456 420.723 84.7061C420.723 90.9479 417.168 94.7671 410.059 96.1636C411.244 97.2638 412.217 98.5439 412.979 100.004C413.762 101.443 414.481 102.882 415.137 104.32C415.878 105.992 416.766 107.748 417.803 109.589C418.84 111.43 420.226 112.784 421.961 113.651C422.659 114.011 423.008 114.455 423.008 114.984C423.008 115.429 422.733 115.82 422.183 116.159C421.569 116.561 420.776 116.762 419.803 116.762ZM406.727 92.958C408.864 92.958 410.652 92.0799 412.09 90.3237C413.55 88.5675 414.28 86.695 414.28 84.7061C414.28 82.696 413.55 80.8234 412.09 79.0884C410.652 77.3534 408.864 76.4858 406.727 76.4858H390.318V92.958H406.727ZM460.371 116H440.788C438.63 116 437.551 115.408 437.551 114.223V74.7085C437.551 73.5236 438.63 72.9312 440.788 72.9312H458.562C461.947 72.9312 464.92 74.0103 467.48 76.1685C470.061 78.3055 471.352 81.109 471.352 84.5791C471.352 88.4935 469.681 91.6144 466.337 93.9419C471.056 96.0578 473.415 99.5278 473.415 104.352C473.415 107.864 472.093 110.689 469.448 112.826C466.803 114.942 463.777 116 460.371 116ZM458.562 92.7041C460.487 92.7041 462.021 91.7731 463.164 89.9111C464.327 88.028 464.909 86.2507 464.909 84.5791C464.909 82.9076 464.327 81.1408 463.164 79.2788C462.021 77.4168 460.487 76.4858 458.562 76.4858H443.994V92.7041H458.562ZM460.371 112.445C462.338 112.445 463.925 111.535 465.131 109.716C466.359 107.875 466.972 106.087 466.972 104.352C466.972 102.596 466.359 100.808 465.131 98.9883C463.925 97.1475 462.338 96.2271 460.371 96.2271H443.994V112.445H460.371ZM509.159 116.762C502.515 116.762 497.183 114.656 493.163 110.446C489.164 106.214 487.164 100.882 487.164 94.4497C487.164 87.9963 489.164 82.6748 493.163 78.4854C497.183 74.2747 502.515 72.1694 509.159 72.1694C515.803 72.1694 521.124 74.2747 525.123 78.4854C529.143 82.6748 531.153 87.9963 531.153 94.4497C531.153 100.882 529.143 106.214 525.123 110.446C521.124 114.656 515.803 116.762 509.159 116.762ZM509.159 113.207C514.3 113.207 518.172 111.218 520.775 107.24C523.399 103.262 524.71 98.9989 524.71 94.4497C524.71 89.9006 523.399 85.6476 520.775 81.6909C518.172 77.7131 514.3 75.7241 509.159 75.7241C504.017 75.7241 500.134 77.7131 497.511 81.6909C494.908 85.6476 493.607 89.9006 493.607 94.4497C493.607 98.9989 494.908 103.262 497.511 107.24C500.134 111.218 504.017 113.207 509.159 113.207ZM545.95 116.762C545.611 116.762 545.294 116.73 544.998 116.667C543.855 116.434 543.284 116.021 543.284 115.429C543.284 115.238 543.358 115.058 543.506 114.889L559.692 94.9893L543.665 74.5815C543.495 74.3488 543.411 74.1266 543.411 73.915C543.411 73.0687 544.162 72.5291 545.664 72.2964C546.045 72.2329 546.468 72.2012 546.934 72.2012C548.521 72.2012 549.6 72.5609 550.171 73.2803L563.501 90.292L577.593 72.9946C578.037 72.4445 578.852 72.1694 580.037 72.1694C580.417 72.1694 580.745 72.2012 581.021 72.2646C582.142 72.4974 582.703 72.91 582.703 73.5024C582.703 73.6929 582.629 73.8727 582.48 74.042L566.326 93.8784L582.417 114.381C582.586 114.572 582.671 114.794 582.671 115.048C582.671 115.831 581.92 116.37 580.417 116.667C580.079 116.73 579.677 116.762 579.211 116.762C577.561 116.762 576.461 116.402 575.911 115.683L562.517 98.5757L548.394 115.937C547.928 116.487 547.113 116.762 545.95 116.762Z" fill="url(#paint1_linear)"/>
</g>
<defs>
<filter id="filter0_d" x="0" y="0" width="616.703" height="188" filterUnits="userSpaceOnUse" color-interpolation-filters="sRGB">
<feFlood flood-opacity="0" result="BackgroundImageFix"/>
<feColorMatrix in="SourceAlpha" type="matrix" values="0 0 0 0 0 0 0 0 0 0 0 0 0 0 0 0 0 0 127 0" result="hardAlpha"/>
<feOffset dy="1"/>
<feGaussianBlur stdDeviation="17"/>
<feComposite in2="hardAlpha" operator="out"/>
<feColorMatrix type="matrix" values="0 0 0 0 1 0 0 0 0 0.419608 0 0 0 0 0 0 0 0 0.77 0"/>
<feBlend mode="normal" in2="BackgroundImageFix" result="effect1_dropShadow"/>
<feBlend mode="normal" in="SourceGraphic" in2="effect1_dropShadow" result="shape"/>
</filter>
<linearGradient id="paint0_linear" x1="-9.27869" y1="33" x2="175.639" y2="153" gradientUnits="userSpaceOnUse">
<stop offset="0.497311" stop-color="#FF6B00"/>
<stop offset="0.926698" stop-color="#FCBF54"/>
</linearGradient>
<linearGradient id="paint1_linear" x1="211.472" y1="64" x2="542.282" y2="118.991" gradientUnits="userSpaceOnUse">
<stop stop-color="#FF6B00"/>
<stop offset="0.488545" stop-color="#FF6B00"/>
<stop offset="1" stop-color="#FCBF54"/>
</linearGradient>
</defs>
</svg>
